<svg width="162" height="40" viewBox="0 0 162 40" fill="none" xmlns="http://www.w3.org/2000/svg">
<g clip-path="url(#clip0_1464_24905)">
<path d="M111.226 17.9584C110.962 17.2307 110.572 16.5552 110.073 15.963C109.593 15.3985 109.001 14.9402 108.334 14.6176C107.649 14.2863 106.898 14.1172 106.137 14.1233C105.435 14.1121 104.737 14.2429 104.087 14.5077C103.494 14.7471 102.962 15.1161 102.531 15.5878C102.089 16.0859 101.753 16.6681 101.542 17.2994C101.307 17.9854 101.189 18.7066 101.195 19.432V23.4867H99.364C98.9463 23.5181 98.5266 23.4663 98.1291 23.3343C97.7316 23.2023 97.3642 22.9928 97.0483 22.7179C96.4317 21.9039 96.1441 20.8877 96.2428 19.8713C96.2648 19.0057 96.1283 18.1434 95.8401 17.3268C95.604 16.6911 95.2251 16.118 94.7326 15.6518C94.2512 15.2183 93.6741 14.9046 93.0485 14.7365C92.3505 14.5472 91.6298 14.4548 90.9067 14.462H90.7602L97.268 9.75737L96.0506 8L87.2455 14.407V16.5122H90.2568C90.9602 16.4922 91.6628 16.5724 92.3437 16.7502C92.8096 16.8778 93.221 17.1542 93.5152 17.5373C93.811 17.9859 93.9875 18.5026 94.0278 19.0384C94.0919 19.6791 94.1285 20.4663 94.1285 21.3999C94.1573 21.9188 94.05 22.4362 93.8173 22.901C93.6159 23.2671 93.1583 23.441 92.4627 23.441H85.0579C84.5613 23.455 84.0668 23.3711 83.6026 23.1939C83.2464 23.0425 82.9323 22.807 82.6873 22.5074C82.4363 22.2085 82.2606 21.8538 82.1748 21.4731C82.0733 21.0536 82.0241 20.6232 82.0283 20.1917V16.6312H79.8316V21.345C79.8591 21.8757 79.742 22.404 79.493 22.8735C79.3485 23.0774 79.1511 23.238 78.9221 23.3381C78.693 23.4381 78.441 23.4736 78.1932 23.441H75.6121C75.1155 23.455 74.621 23.3711 74.1568 23.1939C73.8001 23.0435 73.4857 22.8078 73.2415 22.5074C73.0058 22.2012 72.8374 21.8488 72.7473 21.4731C72.6458 21.0536 72.5966 20.6232 72.6008 20.1917V16.6312H70.4316V21.345C70.4531 21.8721 70.3463 22.3967 70.1204 22.8735C69.9773 23.0813 69.7788 23.2446 69.5473 23.345C69.3159 23.4453 69.0609 23.4786 68.8115 23.441H55.256C55.0398 23.4591 54.8223 23.4254 54.6218 23.3426C54.4212 23.2598 54.2432 23.1304 54.1027 22.965C53.8096 22.4917 53.6779 21.9361 53.7275 21.3816V17.6106H51.5674V21.9582C51.5671 22.434 51.6286 22.9078 51.7504 23.3678C51.8535 23.7979 52.0539 24.1987 52.3362 24.5393C52.631 24.8857 53.0002 25.161 53.4163 25.3448C53.9324 25.5571 54.4878 25.6569 55.0455 25.6377H68.9488C69.6357 25.6549 70.3177 25.5173 70.9441 25.2349C71.605 24.8624 72.0968 24.2493 72.3171 23.5234C72.4974 24.2105 72.937 24.801 73.5436 25.1709C74.1613 25.494 74.8511 25.6546 75.5481 25.6377H78.358C78.6989 25.6327 79.0387 25.599 79.374 25.537C79.6936 25.4874 80.0029 25.3853 80.2893 25.2349C80.5997 25.088 80.8768 24.8794 81.1039 24.6217C81.3766 24.2901 81.5987 23.92 81.7629 23.5234C81.8412 23.8611 81.9869 24.1795 82.1914 24.4595C82.3959 24.7395 82.6549 24.9752 82.9528 25.1526C83.5872 25.4944 84.301 25.6618 85.0213 25.6377H92.7189C93.0621 25.6423 93.405 25.6178 93.7441 25.5645C94.0646 25.5185 94.3745 25.4163 94.6594 25.2624C94.9517 25.1001 95.2097 24.8825 95.4191 24.6217C95.6824 24.2917 95.8896 23.9207 96.0323 23.5234C96.1168 23.8718 96.2706 24.1996 96.4845 24.4874C96.6983 24.7751 96.9679 25.0169 97.2771 25.1983C97.8164 25.4726 98.4112 25.6197 99.0162 25.6285H99.0894H105.817C106.755 25.658 107.689 25.4961 108.563 25.1526C109.253 24.8869 109.878 24.4747 110.393 23.9444C110.815 23.4615 111.127 22.8933 111.309 22.2786C111.514 21.6617 111.619 21.0158 111.62 20.3656C111.63 19.5464 111.496 18.7318 111.226 17.9584ZM109.24 21.5097C109.068 21.943 108.791 22.3267 108.435 22.6264C108.097 22.9111 107.704 23.123 107.281 23.2488C106.835 23.3791 106.373 23.4439 105.908 23.441H103.345V20.2649C103.286 19.2203 103.554 18.1833 104.114 17.2994C104.367 16.951 104.703 16.6713 105.092 16.4859C105.48 16.3004 105.909 16.2151 106.339 16.2376C106.745 16.2364 107.147 16.3206 107.519 16.4848C107.907 16.6575 108.255 16.9065 108.544 17.217C108.856 17.549 109.101 17.9373 109.267 18.3611C109.456 18.8356 109.549 19.3425 109.542 19.853C109.557 20.4202 109.454 20.9844 109.24 21.5097Z" fill="#009CA7"/>
<path d="M61.7641 28.6759C61.5841 28.6737 61.4055 28.7092 61.24 28.7801C61.0745 28.8511 60.9257 28.9558 60.8031 29.0878C60.6728 29.2149 60.5698 29.3674 60.5006 29.5358C60.4313 29.7043 60.3972 29.885 60.4003 30.0671C60.3981 30.2504 60.4325 30.4323 60.5017 30.6021C60.5709 30.7719 60.6734 30.9261 60.8031 31.0556C60.9284 31.1835 61.0779 31.2851 61.2429 31.3544C61.4079 31.4238 61.5851 31.4595 61.7641 31.4595C61.9431 31.4595 62.1203 31.4238 62.2854 31.3544C62.4504 31.2851 62.5999 31.1835 62.7252 31.0556C62.8549 30.9261 62.9574 30.7719 63.0266 30.6021C63.0957 30.4323 63.1302 30.2504 63.1279 30.0671C63.1311 29.885 63.097 29.7043 63.0277 29.5358C62.9585 29.3674 62.8555 29.2149 62.7252 29.0878C62.6026 28.9558 62.4538 28.8511 62.2882 28.7801C62.1227 28.7092 61.9442 28.6737 61.7641 28.6759Z" fill="#009CA7"/>
<path d="M78.9256 11.3318C79.2718 11.323 79.6006 11.1783 79.8409 10.929C79.9762 10.809 80.0857 10.6627 80.1628 10.4991C80.2399 10.3355 80.283 10.1579 80.2894 9.97718C80.2937 9.79496 80.2601 9.61385 80.1907 9.44528C80.1214 9.27671 80.0179 9.12434 79.8867 8.99782C79.7627 8.86767 79.6136 8.76404 79.4484 8.69324C79.2832 8.62244 79.1054 8.58594 78.9256 8.58594C78.7459 8.58594 78.5681 8.62244 78.4028 8.69324C78.2376 8.76404 78.0885 8.86767 77.9646 8.99782C77.8351 9.12565 77.7328 9.27826 77.6636 9.44652C77.5944 9.61478 77.5598 9.79526 77.5619 9.97718C77.5763 10.322 77.7201 10.6488 77.9646 10.8924C78.0858 11.028 78.2338 11.137 78.3992 11.2126C78.5646 11.2882 78.7438 11.3288 78.9256 11.3318Z" fill="#009CA7"/>
<path d="M82.8707 11.3334C83.2168 11.3246 83.5456 11.1799 83.786 10.9306C83.9144 10.8007 84.0155 10.6462 84.0831 10.4763C84.1507 10.3065 84.1835 10.1249 84.1795 9.94209C84.1833 9.76075 84.1504 9.58051 84.0828 9.41221C84.0151 9.24391 83.9142 9.09101 83.786 8.96273C83.6686 8.83643 83.5272 8.73491 83.37 8.66417C83.2128 8.59343 83.043 8.5549 82.8707 8.55085C82.6893 8.54906 82.5095 8.58471 82.3426 8.65559C82.1756 8.72646 82.0251 8.83102 81.9005 8.96273C81.7676 9.09527 81.664 9.25413 81.5962 9.4291C81.5284 9.60407 81.498 9.79128 81.5069 9.97871C81.5179 10.3226 81.6585 10.6495 81.9005 10.894C82.0238 11.0294 82.1734 11.1382 82.3402 11.2138C82.5071 11.2893 82.6876 11.33 82.8707 11.3334Z" fill="#009CA7"/>
<path d="M19.4133 8.55088C19.2333 8.54869 19.0547 8.5842 18.8892 8.65513C18.7237 8.72607 18.5749 8.83086 18.4523 8.96276C18.3183 9.09485 18.2133 9.25341 18.1439 9.42833C18.0746 9.60326 18.0424 9.79071 18.0496 9.97874C18.064 10.3236 18.2078 10.6504 18.4523 10.894C18.5767 11.0229 18.7261 11.1251 18.8913 11.1944C19.0566 11.2636 19.2342 11.2984 19.4133 11.2967C19.5938 11.2981 19.7727 11.2631 19.9394 11.194C20.106 11.1248 20.2571 11.0228 20.3835 10.894C20.6255 10.6495 20.7661 10.3225 20.7771 9.97874C20.7809 9.79739 20.748 9.61715 20.6804 9.44885C20.6127 9.28055 20.5118 9.12766 20.3835 8.99937C20.2621 8.86101 20.1131 8.74961 19.9459 8.67236C19.7788 8.59512 19.5974 8.55374 19.4133 8.55088Z" fill="#009CA7"/>
<path d="M48.0439 21.2165L47.9706 19.8252C47.995 18.9654 47.8584 18.1087 47.5679 17.2991C47.335 16.6639 46.9592 16.0908 46.4696 15.6241C45.9856 15.1941 45.4095 14.8809 44.7854 14.7087C44.0872 14.5206 43.3667 14.4282 42.6436 14.4341H41.2341H39.0008V16.5302H42.0212C42.7246 16.5102 43.4273 16.5903 44.1081 16.7681C44.5752 16.8932 44.9873 17.1702 45.2797 17.5554C45.5792 18.0021 45.756 18.5198 45.7922 19.0565C45.8725 19.841 45.9092 20.6292 45.9021 21.4178C45.9263 21.9364 45.8193 22.4528 45.5909 22.919C45.3804 23.2851 44.9319 23.4589 44.2271 23.4589H34.4243V19.3859C34.4237 18.6766 34.3093 17.9721 34.0856 17.2991C33.8793 16.6834 33.5491 16.1165 33.1154 15.6333C32.6839 15.1616 32.1522 14.7926 31.5594 14.5532C30.9027 14.2874 30.1992 14.1565 29.4909 14.1687C28.7304 14.1626 27.9787 14.3317 27.2942 14.663C26.6288 14.9881 26.0369 15.4461 25.5551 16.0085C25.0587 16.5976 24.6769 17.2744 24.4293 18.0039C24.1528 18.7761 24.0134 19.5907 24.0174 20.411C24.0359 21.0469 24.1501 21.6764 24.3561 22.2783C24.5633 22.9051 24.9036 23.4795 25.3537 23.9623C25.8694 24.4927 26.494 24.9049 27.1843 25.1706C28.0582 25.512 28.9927 25.6707 29.9302 25.6373H32.4381C32.4478 26.3739 32.3109 27.1052 32.0354 27.7883C31.8142 28.2942 31.4715 28.7375 31.0377 29.0789C30.6099 29.3966 30.1153 29.6125 29.5916 29.7105C29.0218 29.8223 28.4423 29.8774 27.8616 29.8751C27.4955 29.8751 27.1203 29.8751 26.7267 29.8751L25.5185 29.7744C25.5185 30.1222 25.4453 30.461 25.4178 30.7905C25.3904 31.12 25.3629 31.477 25.3263 31.8614C25.7256 31.9332 26.1292 31.9791 26.5345 31.9987H27.6969C28.6234 32.0118 29.5472 31.8978 30.4428 31.66C31.2297 31.4487 31.9608 31.0676 32.5846 30.5434C33.2052 30.004 33.691 29.327 34.0033 28.5663C34.3282 27.6256 34.471 26.6315 34.4243 25.6373H44.4193C44.751 25.6302 45.0815 25.5966 45.4078 25.5367C45.7276 25.4876 46.0369 25.3855 46.3231 25.2347C46.6126 25.0719 46.8675 24.8542 47.0736 24.5939C47.3109 24.3011 47.5023 23.974 47.6411 23.6237C47.9189 22.852 48.0553 22.0366 48.0439 21.2165ZM32.3191 23.4406H29.7288C29.2643 23.4436 28.8018 23.3787 28.3559 23.2485C27.9327 23.1227 27.5401 22.9108 27.2026 22.626C26.8456 22.3244 26.5663 21.9415 26.388 21.5094C26.1811 20.9822 26.0816 20.419 26.0951 19.8527C26.0881 19.3422 26.1814 18.8353 26.3697 18.3607C26.5381 17.9359 26.7867 17.5475 27.102 17.2166C27.3891 16.9 27.7422 16.6502 28.1362 16.4845C28.5184 16.3221 28.9292 16.238 29.3444 16.2373C29.7647 16.227 30.1812 16.3183 30.5588 16.5031C30.9364 16.6879 31.2639 16.9609 31.5137 17.2991C32.0946 18.175 32.3771 19.2152 32.3191 20.2646V23.4406Z" fill="#009CA7"/>
<path d="M43.4124 11.3319C43.7585 11.3231 44.0873 11.1784 44.3277 10.9292C44.4613 10.8078 44.5698 10.6612 44.6467 10.4979C44.7237 10.3345 44.7677 10.1576 44.7762 9.97725C44.7782 9.79532 44.7436 9.61485 44.6745 9.44658C44.6053 9.27832 44.5029 9.12572 44.3734 8.99788C44.2561 8.87158 44.1147 8.77006 43.9575 8.69932C43.8003 8.62858 43.6305 8.59005 43.4581 8.586C43.2768 8.58421 43.097 8.61986 42.9301 8.69074C42.7631 8.76161 42.6126 8.86617 42.4879 8.99788C42.3514 9.12224 42.2419 9.27337 42.1664 9.44186C42.0908 9.61035 42.0507 9.79259 42.0486 9.97725C42.0596 10.3211 42.2002 10.648 42.4422 10.8925C42.5655 11.0279 42.7151 11.1368 42.8819 11.2123C43.0488 11.2878 43.2293 11.3285 43.4124 11.3319Z" fill="#009CA7"/>
<path d="M20.5117 16.5759H18.3974V21.4086C18.427 21.9226 18.3262 22.4358 18.1045 22.9005C17.894 23.2667 17.4363 23.4406 16.7407 23.4406H10.4526V19.3858C10.4532 18.6757 10.3356 17.9705 10.1048 17.2989C9.88843 16.6839 9.55248 16.1178 9.11632 15.6331C8.68475 15.1615 8.15308 14.7925 7.56032 14.5531C6.90975 14.2882 6.2124 14.1575 5.51007 14.1686C4.74949 14.1615 3.9976 14.3307 3.31336 14.6629C2.64562 14.9885 2.05089 15.4463 1.56515 16.0084C1.06945 16.6011 0.682148 17.2765 0.421039 18.0037C0.141589 18.7755 -0.000897657 19.5901 4.25496e-06 20.4109C0.0049865 21.0608 0.109947 21.706 0.311203 22.3239C0.518113 22.9528 0.861982 23.528 1.31803 24.008C1.83371 24.5384 2.45825 24.9506 3.14861 25.2162C4.0228 25.5563 4.95702 25.7152 5.89449 25.683H16.9604C17.2934 25.6616 17.624 25.6127 17.9489 25.5366C18.2688 25.488 18.5782 25.3859 18.8642 25.2345C19.152 25.0694 19.4065 24.8521 19.6147 24.5938C19.8712 24.2709 20.0751 23.9095 20.2188 23.5229C20.442 22.5696 20.5374 21.5908 20.5026 20.6123V20.475L20.5117 16.5759ZM8.30171 23.4406H5.73889C5.27434 23.4434 4.81185 23.3787 4.36595 23.2483C3.94275 23.1226 3.55011 22.9107 3.21268 22.6259C2.85235 22.3253 2.56978 21.9423 2.38892 21.5093C2.18203 20.982 2.08245 20.4188 2.09602 19.8526C2.09937 19.3413 2.19872 18.8353 2.38892 18.3607C2.55832 17.9364 2.8068 17.5481 3.12115 17.2166C3.4085 16.9042 3.75757 16.6548 4.14628 16.4843C4.5182 16.3201 4.92047 16.2359 5.32701 16.2372C5.75384 16.2178 6.17882 16.3046 6.56382 16.4899C6.94882 16.6752 7.28179 16.9532 7.53286 17.2989C8.09272 18.1828 8.36159 19.2199 8.30171 20.2645V23.4406Z" fill="#009CA7"/>
<path d="M149.62 0H133.62C126.993 0 121.62 5.37258 121.62 12V28C121.62 34.6274 126.993 40 133.62 40H149.62C156.247 40 161.62 34.6274 161.62 28V12C161.62 5.37258 156.247 0 149.62 0Z" fill="#009CA7"/>
<path d="M147.583 13.5165H147.493C146.327 13.5263 145.212 13.9972 144.391 14.8262C143.982 15.2286 143.659 15.7107 143.444 16.2428C143.228 16.7748 143.124 17.3454 143.137 17.9193V30.1637H140.151V17.9193C140.163 17.3459 140.059 16.776 139.844 16.2443C139.629 15.7125 139.308 15.2301 138.901 14.8262C138.079 13.9987 136.965 13.5281 135.799 13.5165C135.213 13.5044 134.63 13.6117 134.087 13.8317C133.543 14.0517 133.05 14.3799 132.638 14.7964C132.222 15.1992 131.894 15.6832 131.674 16.2183C131.454 16.7533 131.346 17.328 131.358 17.9065V30.68C131.358 30.7492 131.373 30.8177 131.4 30.8814C131.427 30.9452 131.466 31.0029 131.516 31.0513C131.566 31.0997 131.624 31.1378 131.689 31.1634C131.753 31.189 131.822 31.2016 131.891 31.2004C132 31.2001 132.107 31.1675 132.198 31.1066L139.084 26.3453V30.68C139.084 30.7493 139.097 30.818 139.125 30.8819C139.152 30.9457 139.192 31.0033 139.242 31.0511C139.342 31.1486 139.477 31.2023 139.617 31.2004H143.764C143.862 31.1903 143.955 31.1534 144.033 31.0938L150.859 26.4008V30.6757C150.859 30.8171 150.915 30.9528 151.015 31.0528C151.115 31.1528 151.251 31.209 151.393 31.209C151.534 31.209 151.67 31.1528 151.77 31.0528C151.87 30.9528 151.926 30.8171 151.926 30.6757V17.9193C151.938 17.3389 151.83 16.7621 151.61 16.2249C151.39 15.6877 151.062 15.2014 150.646 14.7964C149.834 13.9813 148.733 13.5211 147.583 13.5165ZM147.561 14.5574C148.44 14.5593 149.282 14.9091 149.904 15.5302C150.221 15.8397 150.471 16.2119 150.637 16.6233C150.803 17.0346 150.882 17.476 150.868 17.9193V25.1081L144.204 29.7115V17.8937C144.196 17.4587 144.276 17.0266 144.44 16.6234C144.603 16.2201 144.847 15.8541 145.155 15.5472C145.777 14.9198 146.622 14.5639 147.506 14.5574H147.561ZM135.808 14.5574C136.69 14.5641 137.534 14.92 138.154 15.5472C138.465 15.8573 138.71 16.2276 138.872 16.6355C139.035 17.0434 139.113 17.4803 139.101 17.9193V25.0868L132.441 29.6944V17.8937C132.431 17.4539 132.512 17.0167 132.68 16.6099C132.847 16.203 133.097 15.8354 133.414 15.5302C133.728 15.2189 134.1 14.9726 134.509 14.8057C134.919 14.6388 135.357 14.5544 135.799 14.5574H135.808Z" fill="white"/>
<path d="M153.265 11.1608C151.75 9.65293 149.699 8.80495 147.561 8.80157H147.416C145.267 8.82025 143.213 9.68654 141.699 11.212C141.699 11.2376 141.652 11.259 141.631 11.2803L141.567 11.2163C140.036 9.67963 137.959 8.81128 135.789 8.80088C133.62 8.79049 131.534 9.6389 129.988 11.1608C129.227 11.8986 128.625 12.7847 128.22 13.7644C127.815 14.7441 127.615 15.7964 127.633 16.8564C127.645 16.9913 127.707 17.1167 127.807 17.2081C127.907 17.2995 128.038 17.3502 128.173 17.3502C128.308 17.3502 128.439 17.2995 128.539 17.2081C128.639 17.1167 128.701 16.9913 128.713 16.8564C128.699 15.9378 128.873 15.026 129.224 14.1771C129.576 13.3282 130.097 12.5602 130.756 11.9203C131.421 11.2529 132.215 10.7274 133.089 10.3754C133.963 10.0235 134.9 9.85235 135.842 9.87242C137.695 9.88922 139.468 10.6339 140.778 11.9459C140.923 12.0952 141.064 12.2488 141.204 12.4109C141.257 12.4722 141.323 12.5215 141.396 12.5552C141.47 12.589 141.55 12.6064 141.631 12.6064C141.712 12.6064 141.792 12.589 141.866 12.5552C141.939 12.5215 142.005 12.4722 142.058 12.4109C142.19 12.253 142.331 12.0994 142.484 11.9459C143.795 10.6223 145.575 9.87082 147.438 9.85536H147.561C149.416 9.85624 151.195 10.5909 152.51 11.8989C153.17 12.5409 153.691 13.3112 154.042 14.1623C154.393 15.0135 154.566 15.9274 154.55 16.8479C154.551 16.9894 154.607 17.1248 154.707 17.2253C154.806 17.3257 154.941 17.3832 155.083 17.3854C155.223 17.3855 155.357 17.3312 155.457 17.2341C155.557 17.1369 155.616 17.0045 155.62 16.8649C155.638 15.8038 155.438 14.7502 155.033 13.7692C154.628 12.7882 154.027 11.9005 153.265 11.1608Z" fill="white"/>
</g>
<defs>
<clipPath id="clip0_1464_24905">
<rect width="162" height="40" fill="white"/>
</clipPath>
</defs>
</svg>
